<?xml version="1.0" encoding="UTF-8" standalone="no"?>
<!-- Created with Inkscape (http://www.inkscape.org/) -->

<svg
   xmlns:dc="http://purl.org/dc/elements/1.1/"
   xmlns:cc="http://creativecommons.org/ns#"
   xmlns:rdf="http://www.w3.org/1999/02/22-rdf-syntax-ns#"
   xmlns:svg="http://www.w3.org/2000/svg"
   xmlns="http://www.w3.org/2000/svg"
   xmlns:sodipodi="http://sodipodi.sourceforge.net/DTD/sodipodi-0.dtd"
   xmlns:inkscape="http://www.inkscape.org/namespaces/inkscape"
   width="744.09448819"
   height="1052.3622047"
   id="svg2"
   version="1.1"
   inkscape:version="0.47 r22583"
   sodipodi:docname="New document 1">
  <defs
     id="defs4">
    <inkscape:perspective
       sodipodi:type="inkscape:persp3d"
       inkscape:vp_x="0 : 526.18109 : 1"
       inkscape:vp_y="0 : 1000 : 0"
       inkscape:vp_z="744.09448 : 526.18109 : 1"
       inkscape:persp3d-origin="372.04724 : 350.78739 : 1"
       id="perspective10" />
    <inkscape:perspective
       id="perspective2831"
       inkscape:persp3d-origin="0.5 : 0.33333333 : 1"
       inkscape:vp_z="1 : 0.5 : 1"
       inkscape:vp_y="0 : 1000 : 0"
       inkscape:vp_x="0 : 0.5 : 1"
       sodipodi:type="inkscape:persp3d" />
  </defs>
  <sodipodi:namedview
     id="base"
     pagecolor="#ffffff"
     bordercolor="#666666"
     borderopacity="1.0"
     inkscape:pageopacity="0.0"
     inkscape:pageshadow="2"
     inkscape:zoom="0.49497475"
     inkscape:cx="206.21514"
     inkscape:cy="591.50247"
     inkscape:document-units="px"
     inkscape:current-layer="layer1"
     showgrid="false"
     inkscape:window-width="1440"
     inkscape:window-height="850"
     inkscape:window-x="-8"
     inkscape:window-y="-8"
     inkscape:window-maximized="1" />
  <metadata
     id="metadata7">
    <rdf:RDF>
      <cc:Work
         rdf:about="">
        <dc:format>image/svg+xml</dc:format>
        <dc:type
           rdf:resource="http://purl.org/dc/dcmitype/StillImage" />
        <dc:title></dc:title>
      </cc:Work>
    </rdf:RDF>
  </metadata>
  <g
     inkscape:groupmode="layer"
     id="layer2"
     inkscape:label="Glasses">
    <path
       transform="matrix(1.09225,0,0,1,-38.254989,-50.507627)"
       style="fill:#1a1a1a;fill-opacity:1;fill-rule:nonzero"
       d="M 514.4375 355.875 C 400.81634 359.63705 286.24797 351.55028 173.53523 369.92584 C 129.98241 375.98215 93.587106 408.16843 74.830107 446.90829 C 52.726358 491.01329 53.676727 545.66063 77.712174 588.79245 C 101.99915 634.46875 151.18801 666.87996 203.44175 667.01785 C 259.26368 668.25898 312.02048 633.28373 337.80878 584.63898 C 350.79012 561.35102 356.75799 534.85241 357.9375 508.375 C 359.67947 491.32053 360.74311 472.45737 371.78125 458.53125 C 382.96695 452.01561 397.92065 463.87509 395.48554 476.19469 C 404.14622 520.47414 408.75271 568.04227 435.95422 605.7279 C 477.05901 665.88565 567.58797 686.09862 629.21875 646.125 C 694.25872 605.35107 717.51707 511.28253 679.12184 444.83028 C 646.9233 387.35895 580.24263 351.00648 514.4375 355.875 z "
       id="path2848" />
  </g>
  <g
     inkscape:label="Layer 1"
     inkscape:groupmode="layer"
     id="layer1">
    <path
       style="fill:#b3b3b3;fill-opacity:1;fill-rule:nonzero"
       d="m 247.06339,324.46068 c -38.09769,2.31308 -77.76841,3.09988 -113.1049,19.20221 -48.54091,24.00059 -83.82514,77.72227 -78.02871,132.77423 6.66652,65.33561 68.35055,121.54702 134.72736,117.71106 60.99165,-3.29265 113.93114,-51.05626 130.55102,-108.70946 12.42777,-35.92561 23.99439,-74.5208 16.94872,-112.77349 -9.21609,-29.66046 -40.42505,-48.371 -70.71011,-47.72168 -6.7821,-0.48941 -13.58614,-0.58655 -20.38338,-0.48287 z"
       id="path2818" />
    <path
       style="fill:#b3b3b3;fill-opacity:1;fill-rule:nonzero"
       d="m 504.1193,325.49497 c 38.09769,2.31308 77.76841,3.09988 113.1049,19.20221 48.54091,24.00059 83.82514,77.72227 78.02871,132.77423 -6.66652,65.33561 -68.35055,121.54702 -134.72736,117.71106 -60.99165,-3.29265 -113.93114,-51.05626 -130.55102,-108.70946 -12.42777,-35.92561 -23.99439,-74.5208 -16.94872,-112.77349 9.21609,-29.66046 40.42505,-48.371 70.71011,-47.72168 6.7821,-0.48941 13.58614,-0.58655 20.38338,-0.48287 z"
       id="path2818-1" />
  </g>
</svg>
